<svg width="800" height="800" viewBox="0 0 800 800" fill="none" xmlns="http://www.w3.org/2000/svg">
<path d="M800 400C800 620.914 620.914 800 400 800C179.086 800 0 620.914 0 400C0 179.086 179.086 0 400 0C620.914 0 800 179.086 800 400ZM13.9286 400C13.9286 613.221 186.779 786.071 400 786.071C613.221 786.071 786.071 613.221 786.071 400C786.071 186.779 613.221 13.9286 400 13.9286C186.779 13.9286 13.9286 186.779 13.9286 400Z" fill="#004FAC"/>
<path d="M410.166 411.95H390.833C382.824 411.95 376.333 405.691 376.333 397.968V356.021C376.333 348.298 382.824 342.039 390.833 342.039H410.166C418.175 342.039 424.666 348.298 424.666 356.021V397.968C424.666 405.691 418.175 411.95 410.166 411.95Z" fill="#004FAC" stroke="#004FAC" stroke-width="23.0496" stroke-linecap="round" stroke-linejoin="round"/>
<path d="M183 237.171L400.5 109L618 237.171" stroke="#004FAC" stroke-width="23.0496" stroke-linecap="round" stroke-linejoin="round"/>
<path d="M569.667 318.735V467.88C569.667 475.603 563.176 481.862 555.167 481.862H245.833C237.825 481.862 231.333 475.603 231.333 467.88V318.735" stroke="#004FAC" stroke-width="23.0496" stroke-linecap="round" stroke-linejoin="round"/>
<path d="M257.249 545.273L278.84 606.494H279.692L301.283 545.273H310.516L283.811 618H274.72L248.016 545.273H257.249ZM321.844 618V545.273H365.736V553.085H330.651V577.659H363.463V585.472H330.651V610.188H366.304V618H321.844ZM386.581 618.568C384.829 618.568 383.326 617.941 382.071 616.686C380.816 615.431 380.189 613.928 380.189 612.176C380.189 610.424 380.816 608.921 382.071 607.666C383.326 606.411 384.829 605.784 386.581 605.784C388.333 605.784 389.836 606.411 391.091 607.666C392.346 608.921 392.973 610.424 392.973 612.176C392.973 613.336 392.677 614.402 392.085 615.372C391.517 616.343 390.748 617.124 389.777 617.716C388.83 618.284 387.765 618.568 386.581 618.568ZM409.149 618V545.273H433.722C439.404 545.273 444.068 546.243 447.714 548.185C451.36 550.102 454.059 552.742 455.811 556.104C457.562 559.465 458.438 563.289 458.438 567.574C458.438 571.859 457.562 575.659 455.811 578.973C454.059 582.287 451.372 584.892 447.749 586.786C444.127 588.656 439.499 589.591 433.865 589.591H413.978V581.636H433.58C437.463 581.636 440.588 581.068 442.955 579.932C445.347 578.795 447.075 577.186 448.14 575.102C449.229 572.995 449.774 570.486 449.774 567.574C449.774 564.662 449.229 562.117 448.14 559.939C447.051 557.761 445.311 556.08 442.92 554.896C440.529 553.689 437.368 553.085 433.438 553.085H417.955V618H409.149ZM443.382 585.33L461.279 618H451.052L433.438 585.33H443.382ZM481.92 545.273V618H473.113V545.273H481.92ZM539.351 563.455C538.925 559.856 537.197 557.062 534.166 555.074C531.136 553.085 527.419 552.091 523.016 552.091C519.796 552.091 516.979 552.612 514.564 553.653C512.173 554.695 510.303 556.127 508.953 557.95C507.628 559.773 506.965 561.845 506.965 564.165C506.965 566.106 507.426 567.775 508.35 569.172C509.297 570.545 510.504 571.693 511.972 572.616C513.44 573.516 514.978 574.262 516.588 574.854C518.198 575.422 519.678 575.884 521.027 576.239L528.414 578.227C530.307 578.724 532.414 579.411 534.735 580.287C537.078 581.163 539.316 582.358 541.446 583.874C543.601 585.365 545.376 587.283 546.773 589.626C548.17 591.97 548.868 594.847 548.868 598.256C548.868 602.186 547.838 605.737 545.779 608.909C543.743 612.081 540.76 614.603 536.83 616.473C532.923 618.343 528.177 619.278 522.59 619.278C517.381 619.278 512.871 618.438 509.06 616.757C505.272 615.076 502.289 612.732 500.111 609.726C497.957 606.719 496.737 603.227 496.453 599.25H505.544C505.781 601.996 506.704 604.269 508.314 606.068C509.948 607.844 512.007 609.17 514.493 610.045C517.003 610.898 519.701 611.324 522.59 611.324C525.951 611.324 528.97 610.779 531.645 609.69C534.32 608.578 536.439 607.039 538.002 605.074C539.564 603.085 540.345 600.765 540.345 598.114C540.345 595.699 539.671 593.734 538.321 592.219C536.972 590.704 535.196 589.473 532.994 588.526C530.793 587.579 528.414 586.75 525.857 586.04L516.908 583.483C511.226 581.849 506.728 579.518 503.414 576.487C500.099 573.457 498.442 569.491 498.442 564.591C498.442 560.519 499.543 556.968 501.744 553.938C503.97 550.884 506.953 548.516 510.693 546.835C514.458 545.131 518.66 544.278 523.3 544.278C527.987 544.278 532.154 545.119 535.8 546.8C539.446 548.457 542.334 550.73 544.465 553.618C546.619 556.506 547.755 559.785 547.874 563.455H539.351Z" fill="#004FAC"/>
<path d="M278.548 664.091V699H274.321V664.091H278.548ZM286.479 699V672.818H290.365V676.909H290.706C291.251 675.511 292.132 674.426 293.348 673.653C294.564 672.869 296.024 672.477 297.729 672.477C299.456 672.477 300.893 672.869 302.041 673.653C303.2 674.426 304.104 675.511 304.751 676.909H305.024C305.695 675.557 306.7 674.483 308.041 673.688C309.382 672.881 310.99 672.477 312.865 672.477C315.206 672.477 317.121 673.21 318.609 674.676C320.098 676.131 320.842 678.398 320.842 681.477V699H316.82V681.477C316.82 679.545 316.291 678.165 315.234 677.335C314.178 676.506 312.933 676.091 311.501 676.091C309.661 676.091 308.234 676.648 307.223 677.761C306.212 678.864 305.706 680.261 305.706 681.955V699H301.615V681.068C301.615 679.58 301.132 678.381 300.166 677.472C299.2 676.551 297.956 676.091 296.433 676.091C295.388 676.091 294.411 676.369 293.501 676.926C292.604 677.483 291.876 678.256 291.32 679.244C290.774 680.222 290.501 681.352 290.501 682.636V699H286.479ZM328.197 699V672.818H332.084V676.909H332.425C332.97 675.511 333.851 674.426 335.067 673.653C336.283 672.869 337.743 672.477 339.447 672.477C341.175 672.477 342.612 672.869 343.76 673.653C344.919 674.426 345.822 675.511 346.47 676.909H346.743C347.413 675.557 348.419 674.483 349.76 673.688C351.101 672.881 352.709 672.477 354.584 672.477C356.925 672.477 358.839 673.21 360.328 674.676C361.817 676.131 362.561 678.398 362.561 681.477V699H358.538V681.477C358.538 679.545 358.01 678.165 356.953 677.335C355.896 676.506 354.652 676.091 353.22 676.091C351.379 676.091 349.953 676.648 348.942 677.761C347.93 678.864 347.425 680.261 347.425 681.955V699H343.334V681.068C343.334 679.58 342.851 678.381 341.885 677.472C340.919 676.551 339.675 676.091 338.152 676.091C337.107 676.091 336.129 676.369 335.22 676.926C334.322 677.483 333.595 678.256 333.038 679.244C332.493 680.222 332.22 681.352 332.22 682.636V699H328.197ZM380.553 699.545C378.189 699.545 376.115 698.983 374.331 697.858C372.558 696.733 371.172 695.159 370.172 693.136C369.183 691.114 368.689 688.75 368.689 686.045C368.689 683.318 369.183 680.937 370.172 678.903C371.172 676.869 372.558 675.29 374.331 674.165C376.115 673.04 378.189 672.477 380.553 672.477C382.916 672.477 384.984 673.04 386.757 674.165C388.541 675.29 389.928 676.869 390.916 678.903C391.916 680.937 392.416 683.318 392.416 686.045C392.416 688.75 391.916 691.114 390.916 693.136C389.928 695.159 388.541 696.733 386.757 697.858C384.984 698.983 382.916 699.545 380.553 699.545ZM380.553 695.932C382.348 695.932 383.825 695.472 384.984 694.551C386.143 693.631 387.001 692.42 387.558 690.92C388.115 689.42 388.393 687.795 388.393 686.045C388.393 684.295 388.115 682.665 387.558 681.153C387.001 679.642 386.143 678.42 384.984 677.489C383.825 676.557 382.348 676.091 380.553 676.091C378.757 676.091 377.28 676.557 376.121 677.489C374.962 678.42 374.104 679.642 373.547 681.153C372.99 682.665 372.712 684.295 372.712 686.045C372.712 687.795 372.99 689.42 373.547 690.92C374.104 692.42 374.962 693.631 376.121 694.551C377.28 695.472 378.757 695.932 380.553 695.932ZM399.102 699V664.091H403.125V676.977H403.466C403.761 676.523 404.17 675.943 404.693 675.239C405.227 674.523 405.989 673.886 406.977 673.33C407.977 672.761 409.33 672.477 411.034 672.477C413.239 672.477 415.182 673.028 416.864 674.131C418.545 675.233 419.858 676.795 420.801 678.818C421.744 680.841 422.216 683.227 422.216 685.977C422.216 688.75 421.744 691.153 420.801 693.188C419.858 695.21 418.551 696.778 416.881 697.892C415.21 698.994 413.284 699.545 411.102 699.545C409.42 699.545 408.074 699.267 407.062 698.71C406.051 698.142 405.273 697.5 404.727 696.784C404.182 696.057 403.761 695.455 403.466 694.977H402.989V699H399.102ZM403.057 685.909C403.057 687.886 403.347 689.631 403.926 691.142C404.506 692.642 405.352 693.818 406.466 694.67C407.58 695.511 408.943 695.932 410.557 695.932C412.239 695.932 413.642 695.489 414.767 694.602C415.903 693.705 416.756 692.5 417.324 690.989C417.903 689.466 418.193 687.773 418.193 685.909C418.193 684.068 417.909 682.409 417.341 680.932C416.784 679.443 415.938 678.267 414.801 677.403C413.676 676.528 412.261 676.091 410.557 676.091C408.92 676.091 407.545 676.506 406.432 677.335C405.318 678.153 404.477 679.301 403.909 680.778C403.341 682.244 403.057 683.955 403.057 685.909ZM428.369 699V672.818H432.392V699H428.369ZM430.415 668.455C429.631 668.455 428.955 668.188 428.386 667.653C427.83 667.119 427.551 666.477 427.551 665.727C427.551 664.977 427.83 664.335 428.386 663.801C428.955 663.267 429.631 663 430.415 663C431.199 663 431.869 663.267 432.426 663.801C432.994 664.335 433.278 664.977 433.278 665.727C433.278 666.477 432.994 667.119 432.426 667.653C431.869 668.188 431.199 668.455 430.415 668.455ZM443.783 664.091V699H439.76V664.091H443.783ZM451.151 699V672.818H455.173V699H451.151ZM453.196 668.455C452.412 668.455 451.736 668.188 451.168 667.653C450.611 667.119 450.332 666.477 450.332 665.727C450.332 664.977 450.611 664.335 451.168 663.801C451.736 663.267 452.412 663 453.196 663C453.98 663 454.651 663.267 455.207 663.801C455.776 664.335 456.06 664.977 456.06 665.727C456.06 666.477 455.776 667.119 455.207 667.653C454.651 668.188 453.98 668.455 453.196 668.455ZM470.246 699.614C468.587 699.614 467.081 699.301 465.729 698.676C464.376 698.04 463.303 697.125 462.507 695.932C461.712 694.727 461.314 693.273 461.314 691.568C461.314 690.068 461.609 688.852 462.2 687.92C462.791 686.977 463.581 686.239 464.57 685.705C465.558 685.17 466.649 684.773 467.842 684.511C469.047 684.239 470.257 684.023 471.473 683.864C473.064 683.659 474.354 683.506 475.342 683.403C476.342 683.29 477.07 683.102 477.524 682.841C477.99 682.58 478.223 682.125 478.223 681.477V681.341C478.223 679.659 477.763 678.352 476.842 677.42C475.933 676.489 474.553 676.023 472.7 676.023C470.78 676.023 469.274 676.443 468.183 677.284C467.092 678.125 466.325 679.023 465.882 679.977L462.064 678.614C462.746 677.023 463.655 675.784 464.791 674.898C465.939 674 467.189 673.375 468.541 673.023C469.905 672.659 471.246 672.477 472.564 672.477C473.405 672.477 474.371 672.58 475.462 672.784C476.564 672.977 477.626 673.381 478.649 673.994C479.683 674.608 480.541 675.534 481.223 676.773C481.905 678.011 482.246 679.67 482.246 681.75V699H478.223V695.455H478.018C477.746 696.023 477.291 696.631 476.655 697.278C476.018 697.926 475.172 698.477 474.115 698.932C473.058 699.386 471.768 699.614 470.246 699.614ZM470.859 696C472.45 696 473.791 695.688 474.882 695.062C475.984 694.438 476.814 693.631 477.371 692.642C477.939 691.653 478.223 690.614 478.223 689.523V685.841C478.053 686.045 477.678 686.233 477.098 686.403C476.53 686.562 475.871 686.705 475.121 686.83C474.382 686.943 473.661 687.045 472.956 687.136C472.263 687.216 471.7 687.284 471.268 687.341C470.223 687.477 469.246 687.699 468.337 688.006C467.439 688.301 466.712 688.75 466.155 689.352C465.609 689.943 465.337 690.75 465.337 691.773C465.337 693.17 465.854 694.227 466.888 694.943C467.933 695.648 469.257 696 470.859 696ZM489.588 699V672.818H493.474V676.773H493.747C494.224 675.477 495.088 674.426 496.338 673.619C497.588 672.812 498.997 672.409 500.565 672.409C500.861 672.409 501.23 672.415 501.673 672.426C502.116 672.437 502.452 672.455 502.679 672.477V676.568C502.543 676.534 502.23 676.483 501.741 676.415C501.264 676.335 500.759 676.295 500.224 676.295C498.952 676.295 497.815 676.562 496.815 677.097C495.827 677.619 495.043 678.347 494.463 679.278C493.895 680.199 493.611 681.25 493.611 682.432V699H489.588ZM517.628 699.545C515.105 699.545 512.929 698.989 511.099 697.875C509.281 696.75 507.878 695.182 506.889 693.17C505.912 691.148 505.423 688.795 505.423 686.114C505.423 683.432 505.912 681.068 506.889 679.023C507.878 676.966 509.253 675.364 511.014 674.216C512.787 673.057 514.855 672.477 517.219 672.477C518.582 672.477 519.929 672.705 521.259 673.159C522.588 673.614 523.798 674.352 524.889 675.375C525.98 676.386 526.849 677.727 527.497 679.398C528.145 681.068 528.469 683.125 528.469 685.568V687.273H508.287V683.795H524.378C524.378 682.318 524.082 681 523.491 679.841C522.912 678.682 522.082 677.767 521.003 677.097C519.935 676.426 518.673 676.091 517.219 676.091C515.616 676.091 514.23 676.489 513.06 677.284C511.901 678.068 511.009 679.091 510.384 680.352C509.759 681.614 509.446 682.966 509.446 684.409V686.727C509.446 688.705 509.787 690.381 510.469 691.756C511.162 693.119 512.122 694.159 513.349 694.875C514.577 695.58 516.003 695.932 517.628 695.932C518.685 695.932 519.639 695.784 520.491 695.489C521.355 695.182 522.099 694.727 522.724 694.125C523.349 693.511 523.832 692.75 524.173 691.841L528.06 692.932C527.651 694.25 526.963 695.409 525.997 696.409C525.031 697.398 523.838 698.17 522.418 698.727C520.997 699.273 519.401 699.545 517.628 699.545Z" fill="#004FAC"/>
</svg>
